<svg xmlns="http://www.w3.org/2000/svg" xmlns:xlink="http://www.w3.org/1999/xlink" viewBox="0 0 347.64 100.99"><defs><style>.cls-1{isolation:isolate;}.cls-2{clip-path:url(#clip-path);}.cls-3{fill:none;}.cls-10,.cls-4{fill:#fff;}.cls-5{clip-path:url(#clip-path-2);}.cls-6{fill:url(#linear-gradient);}.cls-7{mask:url(#mask);}.cls-8{opacity:0.59;}.cls-9{clip-path:url(#clip-path-3);}.cls-10{font-size:14.51px;font-family:RNSMiles-Bold, RNS Miles;font-weight:700;}.cls-11{letter-spacing:0.56em;}.cls-12{letter-spacing:0.52em;}.cls-13{letter-spacing:0.56em;}.cls-14{letter-spacing:0.45em;}</style><clipPath id="clip-path"><rect class="cls-3" y="0.04" width="100.95" height="100.95"/></clipPath><clipPath id="clip-path-2" transform="translate(0 0)"><path class="cls-3" d="M.21,50.48A50.48,50.48,0,1,0,50.68,0,50.47,50.47,0,0,0,.21,50.48"/></clipPath><linearGradient id="linear-gradient" x1="-89.46" y1="165" x2="-88.46" y2="165" gradientTransform="matrix(100.95, 0, 0, -100.95, 9031.75, 16708.08)" gradientUnits="userSpaceOnUse"><stop offset="0" stop-color="#f58333"/><stop offset="0.06" stop-color="#f58333"/><stop offset="0.88" stop-color="#f9b22e"/><stop offset="1" stop-color="#f9b22e"/></linearGradient><mask id="mask" x="-13.86" y="-25.94" width="127.2" height="127.42" maskUnits="userSpaceOnUse"><g transform="translate(0 0)"><rect y="0.04" width="100.95" height="100.95"/><g class="cls-1"><g class="cls-2"><path class="cls-4" d="M103.62,56.16a.48.48,0,0,1-.61.35C85.94,51.92,80,46.32,72.27,34.7c-7.93-12-15.83-16.63-27.27-16-3.84.2-6.39,1.28-7.58,3.2-1.89,3-.21,7.78,1.22,11.09,2.19,5,1.57,8.58.86,12.66-.14.78-.28,1.59-.4,2.44-.81,5.39-6.53,15.47-11.16,21.14C21.64,76.92,9.31,84.48,4.1,86.81a.41.41,0,0,1-.21,0,.52.52,0,0,1-.45-.3.5.5,0,0,1,.25-.66c5-2.23,17.36-9.84,23.47-17.33C31.71,63,37.32,53.14,38.1,47.91c.13-.86.28-1.68.41-2.46.72-4.09,1.28-7.32-.79-12.09-1.51-3.52-3.29-8.58-1.15-12,1.37-2.22,4.19-3.45,8.38-3.67C56.64,17.06,65.06,22,73.11,34.14,80.66,45.54,86.52,51,103.27,55.55a.49.49,0,0,1,.35.61"/><path class="cls-4" d="M-10.81,3.92a.46.46,0,0,0,.3.11.47.47,0,0,0,.4-.19C0-8.84,20.93-24,46.41-24.9a67.16,67.16,0,0,1,29.46,5.67C86.5-14.6,96.64-7.13,106,3a.5.5,0,0,0,.71,0,.51.51,0,0,0,0-.71C97.28-7.91,87-15.46,76.27-20.15A68.09,68.09,0,0,0,46.38-25.9a76.16,76.16,0,0,0-33.67,9.62,80.3,80.3,0,0,0-23.6,19.5.49.49,0,0,0,.08.7"/><path class="cls-4" d="M-12.07,9.82a.55.55,0,0,0,.3.11.54.54,0,0,0,.41-.2,82,82,0,0,1,24-20.21,75.81,75.81,0,0,1,34-9.93,67.65,67.65,0,0,1,30.06,5.84C87.46-9.79,97.8-2.08,107.34,8.34a.5.5,0,0,0,.71,0,.51.51,0,0,0,0-.71C98.44-2.86,88-10.65,77-15.49a68.6,68.6,0,0,0-30.5-5.92A76.81,76.81,0,0,0,12.11-11.36,83.22,83.22,0,0,0-12.15,9.12a.5.5,0,0,0,.08.7"/><path class="cls-4" d="M-12.71,18.73A103.67,103.67,0,0,1,13.51-5.33c10.87-6.78,22.12-10.4,33.43-10.77,21-.69,41.41,9.82,60.51,31.23a.5.5,0,0,0,.71,0,.5.5,0,0,0,0-.71C88.89-7.18,68.26-17.81,46.91-17.11,35.42-16.73,24-13,13-6.18A104.8,104.8,0,0,0-13.5,18.11a.5.5,0,0,0,.09.7.48.48,0,0,0,.3.11.5.5,0,0,0,.4-.19"/><path class="cls-4" d="M-12.63,24.94C-4.65,16.27,4.06,7.29,13.69.39,25.13-7.81,36-11.68,48.05-11.79,58.7-11.88,68.74-8.57,79.64-1.38,86.79,3.35,94.51,9.43,103.89,17.1c.46.39.94.76,1.41,1.12a23,23,0,0,1,3,2.6.5.5,0,0,0,.75-.67,24.85,24.85,0,0,0-3.13-2.72c-.46-.36-.93-.72-1.39-1.1-9.4-7.7-17.14-13.8-24.33-18.54C69.12-9.52,58.9-12.89,48-12.79c-12.22.11-23.32,4-34.93,12.36-9.7,7-18.46,16-26.48,24.7a.49.49,0,0,0,0,.7.52.52,0,0,0,.33.14.52.52,0,0,0,.38-.17"/><path class="cls-4" d="M-12.57,31.16c2.88-2.59,6-5.7,9.29-9A227.75,227.75,0,0,1,14.11,6C22.3-.68,32.79-7.46,48.42-7.46c13.35,0,22.79,6,31,12.43l1.34,1c7,5.52,15,11.77,23.59,17.39.68.45,1.37.85,2,1.23a12.75,12.75,0,0,1,2.72,1.86.5.5,0,0,0,.71,0,.48.48,0,0,0,0-.7,12.06,12.06,0,0,0-3-2.06c-.65-.38-1.33-.78-2-1.21C96.35,17,88.41,10.73,81.39,5.23L80.05,4.18c-8.37-6.56-18-12.63-31.63-12.64-16,0-26.61,6.89-34.94,13.64A228.2,228.2,0,0,0-4,21.45c-3.29,3.29-6.39,6.4-9.25,9a.51.51,0,0,0,0,.71.52.52,0,0,0,.37.16.46.46,0,0,0,.34-.13"/><path class="cls-4" d="M-12.82,37.48a.5.5,0,0,0,.31-.1C-8,34.16-3,29,2.3,23.55c3.92-4,8-8.17,12.22-12C22.78,4,32.22-3.25,48.79-3.12,62.66-3,71.09,3.77,79.22,11.3a124.67,124.67,0,0,0,25.61,18.41c.92.48,1.87.88,2.7,1.23A9.47,9.47,0,0,1,110,32.19a.5.5,0,0,0,.71,0,.51.51,0,0,0,0-.71,8.74,8.74,0,0,0-2.79-1.5c-.82-.35-1.75-.74-2.63-1.2A123.34,123.34,0,0,1,79.9,10.57C71.76,3,63.3-3.78,49.49-4.11l-.7,0C31.87-4.26,21.88,3.5,13.85,10.78c-4.28,3.88-8.34,8-12.26,12.07C-3.71,28.27-8.7,33.4-13.1,36.57a.51.51,0,0,0-.11.7.53.53,0,0,0,.39.21"/><path class="cls-4" d="M105.68,35.07A76.15,76.15,0,0,1,79.76,17C72.69,9.22,64.67.45,49.17.21,31.94,0,23.15,7.39,14.22,16.39c-3.05,3.08-6,6.31-8.92,9.43-6.62,7.18-12.87,14-18.24,16.9a.49.49,0,0,0-.2.68.47.47,0,0,0,.42.26.4.4,0,0,0,.26-.06c5.51-3,11.82-9.86,18.5-17.1,2.88-3.12,5.85-6.34,8.89-9.4C23.7,8.26,32.32,1,49.16,1.21,64.23,1.43,72.09,10.05,79,17.64A77.26,77.26,0,0,0,105.3,36a35.88,35.88,0,0,0,3.5,1.17,10.77,10.77,0,0,1,2,.7.5.5,0,1,0,.74-.66,5.93,5.93,0,0,0-2.46-1,32.32,32.32,0,0,1-3.4-1.14"/><path class="cls-4" d="M106.07,41.34c-10.3-3.28-20.44-10.16-26.46-18l-.71-1C72.59,14.2,65.45,4.88,49.7,4.5h-.15c-19-.47-27.1,8.7-35,17.47-2.13,2.38-4.25,4.85-6.31,7.23C.61,38.1-6.65,46.52-12.78,48.87a.51.51,0,0,0-.29.65.5.5,0,0,0,.45.33.69.69,0,0,0,.2,0C-6,47.38,1.28,38.88,9,29.88c2.05-2.38,4.17-4.9,6.3-7.28C23.05,14,31,5,49.53,5.42h.15C65,5.8,71.64,14.56,78.1,23l.72,1c6.13,8,16.46,15,26.94,18.33a38.31,38.31,0,0,0,4.59,1.07c.55.1,1.18.22,1.35.28a.51.51,0,0,0,.64,0,.5.5,0,0,0,0-.71c-.2-.22-.52-.29-1.85-.53a35.49,35.49,0,0,1-4.46-1"/><path class="cls-4" d="M112.85,48.42a36.72,36.72,0,0,1-6.39-.82C95.38,45,84.78,38,79.46,29.78l-1.15-1.84C72.73,19.19,66.41,9.23,49.92,8.83h-.06c-19.31-.48-26.94,8.94-34.31,18l-.58.72c-1.33,1.63-2.68,3.33-4,5C2.36,43.32-5.79,53.51-12.61,55a.5.5,0,0,0-.38.6.51.51,0,0,0,.47.4h.12C-5.23,54.42,3,44.1,11.77,33.18c1.3-1.62,2.65-3.3,4-4.93l.58-.64C23.88,18.3,31,9.6,49.82,10.06h.07c16,.39,22.13,10,27.57,18.53.39.61.77,1.16,1.16,1.75,5.45,8.42,16.29,15.58,27.61,18.25a35.46,35.46,0,0,0,6.6.83.5.5,0,0,0,.51-.49.49.49,0,0,0-.49-.51"/><path class="cls-4" d="M28,37.25c-.52-2.63-1.54-4.13-3-4.45-3.09-.66-7.8,3.75-15.27,14.31C4.2,54.86-3.45,61-9.82,62.7a.5.5,0,0,0-.35.61.51.51,0,0,0,.62.36c6.57-1.78,14.44-8.05,20.05-16C13.07,44.05,20.91,33,24.74,33.78c1.07.23,1.83,1.46,2.26,3.67,2.05,10.42-7.32,29.23-30.24,37.46a.5.5,0,0,0-.31.64.52.52,0,0,0,.46.33.57.57,0,0,0,.18,0C20.55,67.44,30.11,48,28,37.25"/><path class="cls-4" d="M25.34,59.3c5.22-7.63,7.55-16.14,6.25-22.75-1-5.25-3.76-6.89-5.87-7.34a6.56,6.56,0,0,0-1.24-.15c-5.35-.13-10.78,6-17.8,15.93C2.57,50.8-4.42,57.44-10.77,59.15a4.15,4.15,0,0,0-2.54,2,4.18,4.18,0,0,0-.41,3.17,4.22,4.22,0,0,0,3.93,3.09,4.35,4.35,0,0,0,1.19-.14c7.47-2,15.93-8.69,22.1-17.41l.09-.12c1.93-2.74,7.08-10,8.92-10a.26.26,0,0,1,.22.1c1.42,1.48.47,7.81-4.28,14.76C14.87,59.8,8,67-4.49,71.45a4.11,4.11,0,0,0-2.36,2.14A4.18,4.18,0,0,0-7,76.79a4.2,4.2,0,0,0,3.83,2.76,4.05,4.05,0,0,0,1.51-.24c14.59-5.23,22.74-13.77,27-20M-2,78.37a3.26,3.26,0,0,1-1.15.18,3.18,3.18,0,0,1-2.91-2.1A3.11,3.11,0,0,1-5.94,74a3.19,3.19,0,0,1,1.79-1.63c12.74-4.57,19.77-11.9,23.43-17.25,3.92-5.73,6.54-13.54,4.18-16a1.31,1.31,0,0,0-.92-.41c-2.2,0-6,5.1-9.77,10.39l-.09.12c-6,8.54-14.29,15.06-21.54,17a3.41,3.41,0,0,1-.9.11,3.2,3.2,0,0,1-3-2.35,3.17,3.17,0,0,1,.31-2.41,3.16,3.16,0,0,1,1.93-1.48c6.59-1.78,13.79-8.59,18-14.55,6.64-9.4,12.07-15.63,17-15.51a5.39,5.39,0,0,1,1.06.13c1.81.38,4.17,1.84,5.1,6.55,1.25,6.36-1,14.58-6.09,22C20.33,64.85,12.33,73.23-2,78.37"/><path class="cls-4" d="M19.14,47.57a.51.51,0,0,0-.94-.37c-.06.16-6.33,15.54-27,22.44a.5.5,0,0,0-.31.64.5.5,0,0,0,.46.34.51.51,0,0,0,.17,0c21.1-7.05,27.54-22.86,27.61-23"/><path class="cls-4" d="M103.27,55.55C86.52,51,80.66,45.54,73.11,34.14,65.06,22,56.63,17.06,45,17.67c-4.19.22-7,1.45-8.38,3.67-2.14,3.44-.37,8.5,1.15,12,2.07,4.77,1.5,8,.79,12.09-.14.78-.28,1.6-.41,2.46C37.32,53.15,31.71,63,27.16,68.57,21.05,76.06,8.66,83.67,3.69,85.9a.5.5,0,0,0-.25.66.52.52,0,0,0,.45.3.41.41,0,0,0,.21,0c5.21-2.33,17.54-9.89,23.84-17.61,4.63-5.67,10.35-15.75,11.15-21.14.13-.85.27-1.66.41-2.44.71-4.08,1.33-7.61-.86-12.66-1.43-3.31-3.11-8-1.22-11.09,1.19-1.92,3.74-3,7.58-3.2,11.44-.6,19.34,4,27.27,16C80,46.32,85.94,51.92,103,56.51a.48.48,0,0,0,.61-.35.49.49,0,0,0-.35-.61"/><path class="cls-4" d="M104.23,52C89,47.9,83.12,42.17,75.64,30.89s-14.23-17.73-27.16-18h-.25l-.55,0c-4.91-.12-13.61.63-16.79,7-1.57,3.14.1,6.8,1.71,10.33a32,32,0,0,1,1.81,4.55c1.19,4.44.8,7.7.06,12.65S29.6,60,24.19,66.4c-6.68,8-17.31,14-22,16.14a4.18,4.18,0,0,0,1.61,8,4.07,4.07,0,0,0,1.81-.36C11.31,87.61,24,80.68,31,72.75c6.59-7.38,10.52-19,11.68-24.11,2.56-11.25.2-16.64-1.21-19.86-.61-1.39-1-2.39-.86-3.27.49-2.39,2.64-3.5,6.58-3.4.67,0,1.25.06,1.72.1l.71.05c7.92.19,13.53,6.25,19.52,15.28,8.64,13.06,15.71,17.9,32.87,22.52a4.24,4.24,0,0,0,1,.15,4.18,4.18,0,0,0,4.13-3.09A4.17,4.17,0,0,0,104.23,52m2,4.85a3.16,3.16,0,0,1-3.14,2.35,2.78,2.78,0,0,1-.75-.11C85.44,54.55,78.49,49.8,70,37c-6.16-9.3-12-15.53-20.33-15.73L49,21.21c-.46,0-1.08-.09-1.78-.1-4.43-.11-7,1.3-7.59,4.19-.24,1.2.28,2.38.93,3.88,1.45,3.31,3.64,8.31,1.16,19.24-1.33,5.84-5.48,17-11.46,23.66C23.34,79.88,10.84,86.72,5.2,89.25a3.13,3.13,0,0,1-1.38.28A3.17,3.17,0,0,1,2.6,83.46C7.36,81.32,18.16,75.14,25,67.05c5.51-6.57,9.73-14.42,10.5-19.53.66-4.4,1.23-8.19-.08-13.06a32.11,32.11,0,0,0-1.87-4.7C32,26.44,30.43,23,31.79,20.29c2.93-5.89,11.2-6.58,15.86-6.47l.55,0h.28c12.54.31,18.93,6.42,26.33,17.59C82.42,43,88.44,48.78,104,53a3.14,3.14,0,0,1,1.93,1.49,3.1,3.1,0,0,1,.31,2.4"/><path class="cls-4" d="M89.93,89.64c-7-1.58-16.84-9.45-23-23.46-2.82-6.4-8.24-13.85-14.3-14h-.2c-4.23,0-7.91,3.55-10.94,10.52-2.36,5.43-7.27,16.74-27.82,27.1-.83.42-1.55.78-2.16,1.11a.5.5,0,0,0,.23.94.54.54,0,0,0,.25-.06c.59-.32,1.31-.68,2.14-1.1C20.88,87.27,35,80.16,42.39,63.09c2.86-6.57,6.23-9.9,10-9.91h.18c5.59.14,10.7,7.28,13.41,13.41,6.32,14.33,16.46,22.39,23.71,24a.5.5,0,1,0,.22-1"/><path class="cls-4" d="M84.79,92.43c-12.73-4.17-17.17-14-21.08-22.65a58,58,0,0,0-4.41-8.54c-2-3-4.22-4.43-6.43-4.21-4,.39-6.72,6-7.46,7.76-1.74,4.06-5.3,9.06-10.57,14.87-4.93,5.42-13.5,11.18-19.33,14.46a.5.5,0,0,0-.19.68.51.51,0,0,0,.42.26A.48.48,0,0,0,16,95c5.9-3.31,14.57-9.14,19.58-14.66,5.35-5.89,9-11,10.75-15.14C47.74,61.9,50.22,58.29,53,58c1.82-.18,3.67,1.09,5.5,3.77a56.9,56.9,0,0,1,4.32,8.39c3.81,8.42,8.54,18.89,21.68,23.19a.52.52,0,0,0,.64-.32.5.5,0,0,0-.32-.63"/><path class="cls-4" d="M81.44,95.94l-1.39-.72C73.84,92,64.45,87.14,59.91,72.33c-1.89-6.2-3.22-10-6.53-9.66-2.21.22-4,3.64-6,7.61-.79,1.55-1.6,3.16-2.48,4.64-6.77,11.37-16,16.68-21,19.54-1.14.65-2,1.17-2.66,1.62a.5.5,0,0,0,.28.9.43.43,0,0,0,.3-.09c.59-.42,1.47-.92,2.58-1.57,5-2.9,14.43-8.29,21.33-19.89.9-1.51,1.72-3.13,2.52-4.7,1.8-3.55,3.5-6.9,5.17-7.06,1.87-.18,3,1,5.48,9,4.66,15.21,14.27,20.19,20.63,23.49.48.25.94.48,1.38.72a.51.51,0,0,0,.68-.21.52.52,0,0,0-.21-.68"/><path class="cls-4" d="M23.07,26.66c.2,0,.45,0,.73,0s.79,0,1.22,0a4.18,4.18,0,0,1,1.74.34,1.81,1.81,0,0,0,.77.23,1,1,0,0,0,.79-.35c.54-.65.31-2-.07-3.8-.06-.31-.13-.6-.17-.85a1.17,1.17,0,0,0-1.15-1.05c-1.6,0-4.25,2.56-4.77,4a1.13,1.13,0,0,0,.25,1.37,1,1,0,0,0,.66.18m.57-2.09c.95-1.25,2.57-2.45,3.27-2.43.09,0,.14,0,.18.22s.11.56.18.88c.17.79.55,2.64.3,2.93,0,0-.08,0-.36-.11A5,5,0,0,0,25,25.61c-.46,0-.92,0-1.28,0s-.56,0-.71,0a2.63,2.63,0,0,1,.59-1.09"/><path class="cls-4" d="M73.25,97.29c-10.74-5-14.78-15.53-16.88-23-.49-1.75-1.2-2.65-2.16-2.76-2.19-.26-4.6,3.83-8,10.08l-.47.86C42.19,88.91,33.63,94.1,29,96.89l-1.1.67a.5.5,0,0,0,.25.92.47.47,0,0,0,.28-.07c.33-.21.7-.43,1.09-.66C34.23,94.91,42.94,89.62,46.6,83l.47-.86c2.22-4.06,5.26-9.61,7-9.57h.07c.49.06.95.78,1.31,2C57.56,82.22,61.71,93,72.82,98.2a.5.5,0,1,0,.43-.91"/><path class="cls-4" d="M68.19,99.65c-.09,0-8.16-2.33-10.57-10.3-1.66-5.49-3-7.89-4.58-8-1.34-.12-2.34,1.42-3.06,2.78-3.23,6.08-9.65,10.73-15.5,14.48a.49.49,0,0,0-.16.69.51.51,0,0,0,.7.15c6-3.82,12.51-8.57,15.84-14.84,1-1.94,1.71-2.3,2.08-2.26.7.07,1.92,1.4,3.72,7.34,2.57,8.49,10.91,10.87,11.26,11l.12,0a.51.51,0,0,0,.5-.37.5.5,0,0,0-.35-.61"/><path class="cls-4" d="M59.41,99.85a15.76,15.76,0,0,1-5-7c-.17-.4-.33-.78-.49-1.12a1.89,1.89,0,0,0-1.49-1.24c-1.08-.12-2.37.82-4,2.87-1.37,1.75-3.77,3.3-5.88,4.67-.57.37-1.11.72-1.61,1.06a.5.5,0,0,0,.57.83c.49-.34,1-.69,1.58-1,2.19-1.41,4.66-3,6.13-4.89,1.83-2.36,2.76-2.53,3.07-2.49.1,0,.4,0,.69.67.16.32.31.69.47,1.08a16.71,16.71,0,0,0,5.33,7.43.45.45,0,0,0,.29.1.49.49,0,0,0,.41-.19.5.5,0,0,0-.09-.7"/><path class="cls-4" d="M52,96.62a.49.49,0,0,0-.68.19,11.43,11.43,0,0,1-3.57,3.74.5.5,0,0,0-.16.69.51.51,0,0,0,.41.24.43.43,0,0,0,.27-.08,12.09,12.09,0,0,0,3.92-4.1.49.49,0,0,0-.19-.68"/><path class="cls-4" d="M92.52,85.48C89,84.45,78.27,81.3,66.15,55.9c-3-6.27-2-9-1.12-10.15a3,3,0,0,1,2.87-1.12c.87.18,1.9,1.52,3.2,3.23a37.53,37.53,0,0,0,8.8,8.8c5.14,3.51,11.06,5,15.82,6.1a46.56,46.56,0,0,1,5.71,1.61.5.5,0,1,0,.36-.94A50.6,50.6,0,0,0,96,61.78c-4.67-1.13-10.49-2.54-15.49-6a36.12,36.12,0,0,1-8.56-8.58c-1.49-1.94-2.57-3.35-3.8-3.6a3.92,3.92,0,0,0-3.86,1.49c-1.23,1.56-2,4.78,1,11.19,5.28,11.08,13.83,26.25,27,30.11a.27.27,0,0,0,.13,0,.5.5,0,0,0,.15-1"/><path class="cls-4" d="M51.79,49.09l-.12,0v0Z"/><path class="cls-4" d="M63.58,41A3,3,0,0,0,65,38.78c.47-3.13-5.12-10-9.65-11.89a17.74,17.74,0,0,0-5.94-1.36c-1.94-.05-3.32.47-4,1.51s-.54,2.83.54,5c1.45,2.89,1.28,6.15,1.13,9s-.14,5.18,1.2,6.63c.76.82,2.09,1,3.63,1.38V49c4.94.12,6.5-2.21,8.87-5.09l.42-.53A16.46,16.46,0,0,1,63.58,41m-3.2,1.82-.4.38c-2.28,2.78-3.93,4.72-8.12,4.61h0c-1.37-.34-2.33-.29-2.91-.92C47.85,45.71,48,43.52,48.1,41c.16-3,.33-6.33-1.23-9.45-.9-1.82-1.11-3.18-.6-4s2-1.05,3.11-1A16.69,16.69,0,0,1,55,27.81,17.85,17.85,0,0,1,61.3,33c1.81,2.25,2.87,4.46,2.7,5.62-.12.8-.36,1-1,1.57a17.77,17.77,0,0,0-2.57,2.58"/><path class="cls-4" d="M55.25,30.47l-.07,0a15.25,15.25,0,0,0-4.49-1.38,1.53,1.53,0,0,0-1.44.63c-.4.63-.24,1.63.5,3.11.91,1.82.77,4.15.65,6.18s-.24,4,.77,5.12a3.07,3.07,0,0,0,2.32.94h0c3.38.09,6.88-6.48,7.07-7.74.32-2.13-2.36-5.6-5.32-6.83m4.3,6.64c-.15,1-3.41,6.89-6.08,6.84a2.09,2.09,0,0,1-1.55-.57c-.74-.8-.63-2.54-.52-4.38.13-2.16.28-4.61-.75-6.66-.78-1.56-.62-2-.55-2.13s.39-.16.57-.15a14.87,14.87,0,0,1,4.12,1.31l.07,0c2.89,1.2,4.9,4.31,4.69,5.71"/><path class="cls-4" d="M54.61,34a.71.71,0,0,0-.28-.06c-.3,0-.72.16-.94,1a7.48,7.48,0,0,0-.18,1.56c0,.85,0,3.64,1.2,3.67,1.46,0,2.71-2.48,2.77-2.93.14-.94-1.43-2.75-2.57-3.22m-.07,5.13A8.17,8.17,0,0,1,54.4,35a4.52,4.52,0,0,1,1.79,2c-.09.41-1,1.92-1.65,2.07"/><path class="cls-4" d="M43.47,52.89a.65.65,0,0,0,.59.29h0s.09.06.14,0c1-.14,3.73-1.5,4.11-2.41a.66.66,0,0,0,0-.68,3.47,3.47,0,0,0-2.46-1.44,2,2,0,0,0-.87.17l-.16.07-.08.12c-1.12,2-1.54,3.29-1.23,3.83m2-3.15a.92.92,0,0,1,.29,0,2.39,2.39,0,0,1,1.54.86,9.77,9.77,0,0,1-2.92,1.64,13.27,13.27,0,0,1,1.09-2.47"/><path class="cls-4" d="M59.4,48.7a3,3,0,0,0-1.21.6,1.45,1.45,0,0,0-.06,2.26,7.27,7.27,0,0,0,2,1.45,1.09,1.09,0,0,0,1.34-.2c.89-1.08-1-4.74-2.08-4.11m0,2.5a2.39,2.39,0,0,1-.69-.69c-.14-.26.37-.55.53-.69l.28-.21.07,0,.12.1a2.77,2.77,0,0,1,.48.74A3.64,3.64,0,0,1,60.62,52a5.39,5.39,0,0,1-1.23-.82"/><path class="cls-4" d="M60.69,52.2a.06.06,0,0,0,0-.05s0,0,0,.05"/><path class="cls-4" d="M102.66,68.55a73.12,73.12,0,0,1-13.26-4c-6.61-2.57-11.51-5.3-13.8-7.7-4.88-5.12-6-4.29-6.32-4s-1.54,1.18,3.1,8.79C77.59,70.21,85.32,80.46,99,83.94h.11a.5.5,0,0,0,.14-1c-7-1.78-16.29-5.87-26-21.82-3.93-6.44-3.35-7.47-3.36-7.47.24-.09,1.7.45,5,3.91,5.51,5.77,22.88,11.33,27.65,12a.5.5,0,0,0,.13-1"/><path class="cls-4" d="M100.83,73c-9.48-1.7-14.77-4.57-17.07-6.14-.43-.29-.82-.52-1.17-.31a.57.57,0,0,0-.26.54c.12,1.14,7.88,8.28,16.77,11.3l.15,0a.52.52,0,0,0,.49-.35.51.51,0,0,0-.32-.63,43.73,43.73,0,0,1-14.25-8.54A50.55,50.55,0,0,0,100.65,74a.51.51,0,0,0,.58-.41.5.5,0,0,0-.4-.58"/></g></g></g></mask><clipPath id="clip-path-3" transform="translate(0 0)"><rect class="cls-3" y="0.04" width="100.95" height="100.95"/></clipPath></defs><title>Asset 2</title><g id="Layer_2" data-name="Layer 2"><g id="Layer_1-2" data-name="Layer 1"><g class="cls-5"><rect class="cls-6" x="0.21" width="100.95" height="100.95"/></g><g class="cls-7"><g class="cls-8"><g class="cls-9"><path class="cls-4" d="M101,50.52A50.48,50.48,0,1,1,50.48,0,50.47,50.47,0,0,1,101,50.52" transform="translate(0 0)"/></g></g></g><path class="cls-4" d="M86.34,65a5.13,5.13,0,1,1-5.12-5.13A5.12,5.12,0,0,1,86.34,65" transform="translate(0 0)"/><path class="cls-4" d="M14.83,30.94H24.6V45.49h.11a9.26,9.26,0,0,1,7.61-3.31c6.35,0,11,5.21,10.91,13.41,0,9.67-6.08,14.5-12.27,14.5a8.49,8.49,0,0,1-7.61-4h-.1l-.38,3.42H14.61c.11-1.74.22-5.16.22-8.48ZM24.6,57.88a10.53,10.53,0,0,0,.11,1.35,4.07,4.07,0,0,0,3.86,3.21c2.88,0,4.72-2.18,4.72-6.41,0-3.64-1.46-6.36-4.72-6.36A4,4,0,0,0,24.71,53a11.4,11.4,0,0,0-.11,1.3Z" transform="translate(0 0)"/><path class="cls-4" d="M56.05,35.17v7.61h5.54V50H56.05V57.6c0,3.21.76,4.51,3.09,4.51a7.38,7.38,0,0,0,2.34-.22v7.44a20.23,20.23,0,0,1-5.81.76A9.48,9.48,0,0,1,49,67.65c-1.63-1.63-2.5-4.29-2.5-8.36V50H43.18V42.78h3.31V37.73Z" transform="translate(0 0)"/><rect class="cls-4" x="63.54" y="30.94" width="9.77" height="38.56"/><path class="cls-4" d="M108.67,22.33h9.87V37h.11c1.53-2,4.2-3.32,7.64-3.32,6.32,0,11,5.23,11,13.47,0,9.71-6.11,14.56-12.33,14.56a8.5,8.5,0,0,1-7.63-4h-.11l-.39,3.43h-8.34c.11-1.74.22-5.18.22-8.45Zm9.87,27.11a10.55,10.55,0,0,0,.11,1.36A4,4,0,0,0,122.52,54c2.89,0,4.75-2.18,4.75-6.43,0-3.66-1.47-6.39-4.75-6.39a4,4,0,0,0-3.87,3.33,11.57,11.57,0,0,0-.11,1.31Z" transform="translate(0 0)"/><path class="cls-4" d="M144.34,31.49a4.62,4.62,0,0,1-5-4.63c0-2.73,2-4.69,5-4.69a4.67,4.67,0,1,1,0,9.32Zm-4.91,2.79h9.88V61.11h-9.88Z" transform="translate(0 0)"/><path class="cls-4" d="M165.78,61.71c-8,0-14.24-5.07-14.24-13.8,0-8.56,5.62-14.24,14.78-14.24,8.4,0,14,5.68,14,13.75,0,9.76-7,14.29-14.46,14.29Zm.27-6.92c2.67,0,4.09-2.79,4.09-7.1,0-3.71-1.2-7.09-4.09-7.09-3.27,0-4.36,3.55-4.36,7.09,0,4,1.31,7.1,4.31,7.1Z" transform="translate(0 0)"/><path class="cls-4" d="M182.52,43.44c0-3.6-.11-6.66-.21-9.16h8.23l.38,3.38h.22a9.37,9.37,0,0,1,8-4c3.43,0,6.11,1.58,7.25,4.3h.11a11,11,0,0,1,3.71-3.21,10.15,10.15,0,0,1,4.75-1.09c5.78,0,9.11,4.2,9.11,11.67V61.11h-9.55V46.82c0-3.33-1-5.23-3.16-5.23a3,3,0,0,0-3,2.29,5.82,5.82,0,0,0-.28,2V61.11h-9.54V46.55c0-3-.93-5-3.17-5a3.28,3.28,0,0,0-3,2.18,6.35,6.35,0,0,0-.27,2V61.11h-9.55Z" transform="translate(0 0)"/><path class="cls-4" d="M235.49,51.13c.33,2.13,3.44,3.33,6.93,3.33a23.81,23.81,0,0,0,7.31-1L251,60a27.85,27.85,0,0,1-10,1.69c-9.43,0-14.78-5.18-14.78-13.69,0-6.22,4-14.3,13.91-14.3,8.67,0,12.38,6.39,12.38,13.75a17,17,0,0,1-.38,3.71Zm7.91-6.65c0-1.53-.71-4.37-3.82-4.37-2.89,0-4,2.67-4.2,4.37Z" transform="translate(0 0)"/><path class="cls-4" d="M265.16,26.64v7.64h5.57v7.2h-5.57v7.69c0,3.16.71,4.47,3.11,4.47a7.41,7.41,0,0,0,2.35-.22V60.9a18.81,18.81,0,0,1-5.84.76,9.53,9.53,0,0,1-6.71-2.46c-1.64-1.63-2.51-4.25-2.51-8.34V41.48h-3.33v-7.2h3.33v-5Z" transform="translate(0 0)"/><path class="cls-4" d="M272.74,43.33c0-4.25-.05-6.82-.21-9h8.4l.38,4.85h.22a7.65,7.65,0,0,1,7.14-5.45,7.52,7.52,0,0,1,2,.16v9.22a10.41,10.41,0,0,0-2.51-.27c-2.89,0-4.86,1.2-5.4,3.38a12.67,12.67,0,0,0-.11,1.69V61.11h-9.88Z" transform="translate(0 0)"/><path class="cls-4" d="M296.91,31.49a4.61,4.61,0,0,1-5-4.63c0-2.73,2-4.69,5-4.69a4.64,4.64,0,0,1,5,4.69c0,2.56-2,4.63-5,4.63ZM292,34.28h9.87V61.11H292Z" transform="translate(0 0)"/><path class="cls-4" d="M326,60.51a18.8,18.8,0,0,1-7.37,1.15c-8.94,0-14.56-5.24-14.56-13.75,0-7.63,5.29-14.18,15.76-14.18a20,20,0,0,1,6.17.93l-1.37,7.2a11.07,11.07,0,0,0-4.25-.66,6,6,0,0,0-6.22,6.39c0,4.36,3,6.43,6.49,6.43a11.52,11.52,0,0,0,4.31-.71Z" transform="translate(0 0)"/><path class="cls-4" d="M327.84,52.82a17.62,17.62,0,0,0,7.42,2c2.12,0,2.94-.44,2.94-1.47s-.6-1.37-3.49-2.29c-5.94-1.86-8-5.08-7.91-8.19,0-5.34,4.58-9.22,11.68-9.22a21.07,21.07,0,0,1,8,1.53l-1.58,6.66a15.6,15.6,0,0,0-5.95-1.48c-1.69,0-2.67.44-2.67,1.53,0,.87.87,1.42,4,2.46,5.29,1.69,7.3,4.47,7.36,8.29,0,5.13-4,9-12.27,9a21.09,21.09,0,0,1-9.22-1.91Z" transform="translate(0 0)"/><text class="cls-10" transform="translate(108.45 76.83)"><tspan class="cls-11">TECHNO</tspan><tspan class="cls-12" x="111.32" y="0">L</tspan><tspan class="cls-11" x="126.82" y="0">OG</tspan><tspan class="cls-13" x="166.6" y="0">Y </tspan><tspan class="cls-14" x="194.87" y="0">L</tspan><tspan class="cls-11" x="209.4" y="0">T</tspan><tspan x="226.73" y="0">D</tspan></text></g></g></svg>