<svg xmlns="http://www.w3.org/2000/svg" xmlns:xlink="http://www.w3.org/1999/xlink" viewBox="0 0 315 92.36"><defs><style>.cls-1{isolation:isolate;}.cls-2{clip-path:url(#clip-path);}.cls-3{fill:none;}.cls-4{fill:#fff;}.cls-5{clip-path:url(#clip-path-2);}.cls-6{fill:url(#linear-gradient);}.cls-7{mask:url(#mask);}.cls-8{opacity:0.59;}.cls-9{clip-path:url(#clip-path-3);}.cls-10{fill:#0867af;}.cls-11{clip-path:url(#clip-path-4);}.cls-12{fill:url(#linear-gradient-2);}.cls-13{clip-path:url(#clip-path-5);}.cls-14{fill:url(#linear-gradient-3);}.cls-15{clip-path:url(#clip-path-6);}.cls-16{fill:url(#linear-gradient-4);}.cls-17{clip-path:url(#clip-path-7);}.cls-18{fill:url(#linear-gradient-5);}.cls-19{clip-path:url(#clip-path-8);}.cls-20{fill:url(#linear-gradient-6);}.cls-21{clip-path:url(#clip-path-9);}.cls-22{fill:url(#linear-gradient-7);}.cls-23{clip-path:url(#clip-path-10);}.cls-24{fill:url(#linear-gradient-8);}.cls-25{clip-path:url(#clip-path-11);}.cls-26{fill:url(#linear-gradient-9);}.cls-27{clip-path:url(#clip-path-12);}.cls-28{fill:url(#linear-gradient-10);}.cls-29{clip-path:url(#clip-path-13);}.cls-30{fill:url(#linear-gradient-11);}.cls-31{clip-path:url(#clip-path-14);}.cls-32{fill:url(#linear-gradient-12);}.cls-33{clip-path:url(#clip-path-15);}.cls-34{fill:url(#linear-gradient-13);}.cls-35{clip-path:url(#clip-path-16);}.cls-36{fill:url(#linear-gradient-14);}</style><clipPath id="clip-path"><rect class="cls-3" width="92.36" height="92.36"/></clipPath><clipPath id="clip-path-2" transform="translate(0)"><path class="cls-3" d="M.19,46.18A46.18,46.18,0,1,0,46.37,0,46.17,46.17,0,0,0,.19,46.18"/></clipPath><linearGradient id="linear-gradient" x1="-103.04" y1="159.29" x2="-102.04" y2="159.29" gradientTransform="matrix(92.36, 0, 0, -92.36, 9517.33, 14758.85)" gradientUnits="userSpaceOnUse"><stop offset="0" stop-color="#f58333"/><stop offset="0.06" stop-color="#f58333"/><stop offset="0.88" stop-color="#f9b22e"/><stop offset="1" stop-color="#f9b22e"/></linearGradient><mask id="mask" x="-12.68" y="-23.77" width="116.38" height="116.58" maskUnits="userSpaceOnUse"><g transform="translate(0)"><rect width="92.36" height="92.36"/><g class="cls-1"><g class="cls-2"><path class="cls-4" d="M94.8,51.34a.46.46,0,0,1-.56.33c-15.61-4.21-21.08-9.33-28.12-20-7.26-11-14.49-15.21-25-14.67-3.51.19-5.85,1.17-6.94,2.93-1.72,2.78-.18,7.12,1.12,10.15,2,4.62,1.44,7.84.79,11.58-.13.72-.26,1.46-.37,2.23-.74,4.94-6,14.16-10.21,19.35-5.76,7-17,14-21.81,16.11a.43.43,0,0,1-.19,0,.47.47,0,0,1-.41-.27.46.46,0,0,1,.23-.61c4.54-2,15.87-9,21.47-15.85,4.16-5.1,9.29-14.12,10-18.9.12-.79.25-1.54.37-2.26.66-3.74,1.17-6.69-.72-11.06-1.39-3.21-3-7.85-1.06-11,1.26-2,3.84-3.16,7.67-3.36,10.69-.56,18.4,3.95,25.77,15.07,6.9,10.43,12.26,15.45,27.59,19.58a.46.46,0,0,1,.32.56"/><path class="cls-4" d="M-9.89,3.55a.39.39,0,0,0,.27.1.42.42,0,0,0,.37-.17C0-8.12,19.15-22,42.46-22.82a61.42,61.42,0,0,1,26.95,5.19C79.14-13.39,88.41-6.56,97,2.68a.47.47,0,0,0,.65,0,.46.46,0,0,0,0-.65C89-7.28,79.62-14.18,69.78-18.47a62.36,62.36,0,0,0-27.35-5.26,69.53,69.53,0,0,0-30.8,8.8A73.35,73.35,0,0,0-10,2.91a.46.46,0,0,0,.08.64"/><path class="cls-4" d="M-11,9a.52.52,0,0,0,.27.1.46.46,0,0,0,.37-.18A75.27,75.27,0,0,1,11.52-9.63,69.43,69.43,0,0,1,42.6-18.71a62,62,0,0,1,27.5,5.34C80-9,89.47-1.94,98.2,7.6a.47.47,0,0,0,.65,0,.46.46,0,0,0,0-.65C90.06-2.65,80.5-9.78,70.47-14.21a62.75,62.75,0,0,0-27.91-5.41,70.18,70.18,0,0,0-31.48,9.19A76,76,0,0,0-11.12,8.3.46.46,0,0,0-11,9"/><path class="cls-4" d="M-11.62,17.1a94.53,94.53,0,0,1,24-22c10-6.2,20.23-9.52,30.58-9.86,19.25-.63,37.89,9,55.37,28.58A.46.46,0,0,0,99,13.2C81.32-6.61,62.45-16.33,42.91-15.69c-10.51.35-20.95,3.71-31,10A95.53,95.53,0,0,0-12.35,16.53a.47.47,0,0,0,.08.65.46.46,0,0,0,.27.09.45.45,0,0,0,.38-.17"/><path class="cls-4" d="M-11.56,22.78C-4.25,14.85,3.72,6.64,12.53.32,23-7.18,33-10.72,44-10.82c9.75-.08,18.93,2.94,28.9,9.52C79.4,3,86.46,8.59,95.05,15.61c.42.35.86.69,1.29,1A20.94,20.94,0,0,1,99.07,19a.46.46,0,1,0,.69-.61,22,22,0,0,0-2.86-2.49c-.42-.33-.85-.66-1.27-1-8.61-7-15.69-12.62-22.27-17C63.24-8.75,53.89-11.83,44-11.74,32.77-11.64,22.61-8,12-.43,3.12,5.94-4.9,14.19-12.23,22.16a.47.47,0,0,0,0,.65.46.46,0,0,0,.3.12.41.41,0,0,0,.35-.15"/><path class="cls-4" d="M-11.5,28.47C-8.87,26.1-6,23.26-3,20.24A212,212,0,0,1,12.91,5.41C20.4-.65,30-6.86,44.3-6.86c12.21,0,20.85,5.47,28.37,11.37l1.23,1c6.43,5.05,13.72,10.77,21.57,15.91.63.41,1.27.78,1.88,1.13a11.77,11.77,0,0,1,2.49,1.7.45.45,0,0,0,.64,0,.46.46,0,0,0,0-.65,11.59,11.59,0,0,0-2.71-1.88c-.6-.35-1.23-.71-1.83-1.11C88.15,15.49,80.88,9.78,74.46,4.75l-1.23-1C65.58-2.21,56.79-7.77,44.3-7.78,29.71-7.78,20-1.47,12.33,4.7a210,210,0,0,0-16,14.89c-3,3-5.85,5.85-8.46,8.2a.46.46,0,0,0,0,.65.44.44,0,0,0,.33.15.39.39,0,0,0,.32-.12"/><path class="cls-4" d="M-11.73,34.25a.46.46,0,0,0,.28-.08c4.09-3,8.69-7.67,13.56-12.66,3.58-3.68,7.28-7.47,11.17-11C20.84,3.66,29.48-3,44.63-2.89c12.7.11,20.41,6.3,27.85,13.2A113.74,113.74,0,0,0,95.9,27.14c.85.44,1.71.81,2.48,1.13a8.53,8.53,0,0,1,2.22,1.14.46.46,0,1,0,.68-.61,7.79,7.79,0,0,0-2.55-1.37c-.74-.32-1.59-.68-2.4-1.1A112.4,112.4,0,0,1,73.1,9.63C65.65,2.73,57.91-3.49,45.28-3.8h-.64c-15.48-.12-24.62,7-32,13.64C8.76,13.38,5,17.18,1.45,20.87-3.39,25.83-8,30.52-12,33.42a.46.46,0,0,0-.11.64.47.47,0,0,0,.36.19"/><path class="cls-4" d="M96.68,32.05A69.68,69.68,0,0,1,73,15.48C66.5,8.4,59.16.37,45,.15,29.22-.08,21.18,6.72,13,15c-2.8,2.82-5.52,5.77-8.16,8.63C-1.21,30.15-6.93,36.35-11.84,39.05a.44.44,0,0,0-.18.62.44.44,0,0,0,.39.24.42.42,0,0,0,.23-.06c5-2.77,10.81-9,16.92-15.64,2.64-2.85,5.36-5.8,8.14-8.61C21.68,7.52,29.57.85,45,1.07c13.8.2,21,8.08,27.32,15a70.75,70.75,0,0,0,24,16.8A31.69,31.69,0,0,0,99.54,34a9.53,9.53,0,0,1,1.83.64.45.45,0,0,0,.64,0,.46.46,0,0,0,0-.65,5.69,5.69,0,0,0-2.26-.91,31.48,31.48,0,0,1-3.11-1"/><path class="cls-4" d="M97,37.78c-9.43-3-18.7-9.29-24.2-16.43l-.66-.88C66.41,13,59.88,4.43,45.47,4.08h-.14c-17.35-.43-24.79,8-32,16-1.95,2.17-3.89,4.43-5.77,6.61-7,8.14-13.66,15.84-19.28,18a.46.46,0,0,0-.26.59.46.46,0,0,0,.42.3.34.34,0,0,0,.17,0c5.83-2.23,12.54-10,19.64-18.24,1.88-2.17,3.82-4.49,5.77-6.66C21.09,12.77,28.39,4.51,45.31,4.92h.14c14,.34,20.09,8.36,26,16.06l.65.87c5.61,7.28,15.06,13.72,24.65,16.78a33.71,33.71,0,0,0,4.2,1c.5.09,1.08.2,1.24.26a.45.45,0,0,0,.58,0,.45.45,0,0,0,0-.64c-.18-.21-.47-.27-1.69-.49A32.31,32.31,0,0,1,97,37.78"/><path class="cls-4" d="M103.25,44.26a32.92,32.92,0,0,1-5.85-.74c-10.14-2.4-19.84-8.8-24.7-16.31-.35-.55-.7-1.13-1.06-1.69-5.1-8-10.88-17.11-26-17.48h-.06C28,7.61,21,16.22,14.23,24.54l-.53.65c-1.22,1.5-2.45,3-3.64,4.54C2.16,39.59-5.3,48.92-11.54,50.32a.47.47,0,0,0-.35.55.46.46,0,0,0,.44.36h.11c6.56-1.47,14.11-10.91,22.11-20.9,1.19-1.49,2.42-3,3.64-4.51l.53-.59c6.91-8.51,13.43-16.47,30.64-16h.06c14.6.36,20.25,9.14,25.23,17,.35.56.71,1.06,1.06,1.6,5,7.71,14.9,14.25,25.26,16.7a33.09,33.09,0,0,0,6,.76.46.46,0,0,0,0-.92"/><path class="cls-4" d="M25.6,34.05c-.47-2.41-1.41-3.79-2.78-4.08-2.82-.6-7.13,3.43-14,13.09-5,7.1-12,12.7-17.84,14.27a.45.45,0,0,0-.32.56.45.45,0,0,0,.56.32c6-1.62,13.21-7.36,18.34-14.62,2.36-3.33,9.53-13.46,13-12.72,1,.21,1.68,1.34,2.07,3.35C26.58,43.76,18,61-3,68.49a.47.47,0,0,0-.28.59.46.46,0,0,0,.42.3.32.32,0,0,0,.17,0c21.46-7.7,30.2-25.45,28.26-35.31"/><path class="cls-4" d="M23.19,54.21c4.77-7,6.9-14.76,5.71-20.81-.94-4.8-3.44-6.3-5.37-6.72a6.32,6.32,0,0,0-1.14-.13C17.5,26.43,12.53,32,6.11,41.12c-3.76,5.32-10.16,11.39-16,13a3.8,3.8,0,0,0-2.31,1.78,3.78,3.78,0,0,0-.38,2.9A3.83,3.83,0,0,0-9,61.59a3.62,3.62,0,0,0,1.09-.13c6.83-1.84,14.58-8,20.22-15.93l.08-.11c1.77-2.5,6.48-9.16,8.16-9.12a.31.31,0,0,1,.21.09c1.29,1.36.42,7.15-3.92,13.51-3.27,4.78-9.57,11.33-21,15.43a3.79,3.79,0,0,0-2.17,2,3.75,3.75,0,0,0-.14,2.92,3.86,3.86,0,0,0,3.5,2.53,3.9,3.9,0,0,0,1.39-.23c13.34-4.78,20.8-12.6,24.71-18.31m-25,17.45a2.93,2.93,0,0,1-1,.17,2.92,2.92,0,0,1-2.67-1.92,2.9,2.9,0,0,1,.11-2.22,2.9,2.9,0,0,1,1.65-1.5C7.85,62,14.29,55.31,17.63,50.41c3.59-5.24,6-12.39,3.83-14.65a1.15,1.15,0,0,0-.84-.37c-2,0-5.52,4.67-8.94,9.5L11.6,45C6.08,52.82-1.47,58.78-8.1,60.57a2.66,2.66,0,0,1-.83.1,2.93,2.93,0,0,1-2.74-2.14,2.89,2.89,0,0,1,.29-2.21A2.93,2.93,0,0,1-9.62,55c6-1.62,12.62-7.85,16.48-13.31,6.08-8.59,11-14.29,15.51-14.18a4.42,4.42,0,0,1,1,.11c1.67.36,3.83,1.68,4.67,6,1.15,5.82-.94,13.34-5.57,20.11C18.6,59.29,11.28,67-1.83,71.66"/><path class="cls-4" d="M17.51,43.49a.47.47,0,0,0-.26-.6.46.46,0,0,0-.6.26c0,.14-5.79,14.21-24.69,20.53a.46.46,0,0,0-.29.58.45.45,0,0,0,.42.31.41.41,0,0,0,.16,0c19.3-6.45,25.2-20.92,25.26-21.06"/><path class="cls-4" d="M94.48,50.78C79.15,46.65,73.79,41.63,66.89,31.2,59.52,20.08,51.81,15.57,41.12,16.13c-3.83.2-6.41,1.33-7.67,3.36-2,3.14-.33,7.78,1.06,11,1.89,4.37,1.38,7.32.72,11.06-.12.72-.25,1.47-.37,2.26-.72,4.79-5.85,13.8-10,18.9C19.25,69.55,7.92,76.51,3.38,78.55a.46.46,0,0,0-.23.61.45.45,0,0,0,.41.27.43.43,0,0,0,.19,0c4.77-2.14,16.05-9,21.81-16.11C29.79,58.09,35,48.87,35.77,43.93c.11-.77.24-1.51.37-2.23.65-3.73,1.21-7-.79-11.58-1.3-3-2.84-7.37-1.12-10.15,1.09-1.76,3.43-2.74,6.94-2.93,10.46-.54,17.69,3.7,25,14.67,7,10.63,12.51,15.75,28.12,20a.46.46,0,0,0,.24-.89"/><path class="cls-4" d="M95.35,47.53C81.44,43.79,76,38.55,69.2,28.22S56.19,12,44.35,11.72h-.22l-.51,0c-4.49-.11-12.45.58-15.36,6.43-1.43,2.87.09,6.21,1.57,9.45a28,28,0,0,1,1.65,4.16c1.09,4.06.73,7,.05,11.57s-4.45,11.52-9.4,17.42C16,68,6.29,73.56,2,75.48a3.82,3.82,0,0,0,1.48,7.31,3.78,3.78,0,0,0,1.65-.33c5.22-2.34,16.8-8.69,23.27-15.94,6-6.75,9.62-17.38,10.69-22,2.34-10.3.18-15.23-1.11-18.17-.56-1.27-1-2.19-.79-3,.45-2.18,2.42-3.2,6-3.11.61,0,1.14.06,1.57.09l.65,0c7.25.17,12.38,5.72,17.86,14,7.91,11.95,14.37,16.37,30.08,20.6a3.92,3.92,0,0,0,.9.14,3.81,3.81,0,0,0,3.78-2.83,3.83,3.83,0,0,0-2.7-4.69M97.17,52a2.91,2.91,0,0,1-2.88,2.15,3.28,3.28,0,0,1-.69-.1c-15.44-4.16-21.79-8.51-29.55-20.22C58.42,25.3,53.1,19.6,45.45,19.41l-.59,0c-.42,0-1-.08-1.63-.1-4.06-.09-6.39,1.2-6.94,3.84-.23,1.1.25,2.18.85,3.55,1.32,3,3.32,7.6,1,17.6-1.21,5.34-5,15.52-10.47,21.65-6.37,7.14-17.81,13.4-23,15.71a2.86,2.86,0,0,1-1.25.26,2.91,2.91,0,0,1-1.12-5.56c4.36-1.95,14.24-7.61,20.45-15,5.05-6,8.91-13.2,9.61-17.88.6-4,1.12-7.49-.07-11.94a29.56,29.56,0,0,0-1.71-4.3c-1.38-3-2.82-6.18-1.58-8.67,2.69-5.38,10.25-6,14.52-5.91l.5,0h.25c11.47.29,17.32,5.88,24.09,16.1,7,10.52,12.47,15.86,26.68,19.69a2.92,2.92,0,0,1,2,3.56"/><path class="cls-4" d="M82.28,82c-6.41-1.45-15.41-8.65-21.06-21.47-2.58-5.85-7.54-12.67-13.08-12.81H48c-3.87,0-7.24,3.24-10,9.62-2.17,5-6.66,15.31-25.46,24.79q-1.14.57-2,1a.46.46,0,0,0-.18.62.45.45,0,0,0,.62.18c.54-.29,1.2-.62,2-1C19.1,79.8,32,73.3,38.79,57.68c2.61-6,5.69-9.06,9.16-9.06h.17c5.11.12,9.79,6.66,12.26,12.26,5.78,13.12,15.07,20.49,21.7,22a.46.46,0,1,0,.2-.89"/><path class="cls-4" d="M77.57,84.52c-11.64-3.8-15.7-12.79-19.29-20.72a52.58,52.58,0,0,0-4-7.81c-1.88-2.75-3.86-4.05-5.88-3.85-3.66.35-6.15,5.52-6.83,7.1C40,63,36.7,67.53,31.87,72.84c-4.51,5-12.34,10.23-17.68,13.23a.47.47,0,0,0-.18.63.45.45,0,0,0,.39.23.43.43,0,0,0,.24-.06C20,83.84,28,78.5,32.55,73.46c4.9-5.39,8.21-10,9.84-13.86,1.29-3,3.56-6.3,6.07-6.55,1.67-.16,3.36,1,5,3.45a52.2,52.2,0,0,1,4,7.68c3.48,7.7,7.81,17.28,19.83,21.22a.47.47,0,0,0,.58-.3.46.46,0,0,0-.29-.58"/><path class="cls-4" d="M74.51,87.74l-1.27-.66c-5.69-3-14.27-7.39-18.43-20.94-1.73-5.67-3-9.13-6-8.84-2,.2-3.62,3.33-5.46,7-.72,1.42-1.47,2.89-2.28,4.24C34.91,78.91,26.46,83.77,21.92,86.38c-1,.6-1.86,1.07-2.43,1.48a.46.46,0,0,0-.11.64.42.42,0,0,0,.36.19.42.42,0,0,0,.28-.08c.53-.38,1.34-.85,2.36-1.43C27,84.52,35.58,79.58,41.89,69c.82-1.38,1.58-2.86,2.3-4.29,1.65-3.25,3.21-6.32,4.74-6.47,1.71-.16,2.78.94,5,8.2C58.2,80.32,67,84.88,72.82,87.89l1.26.66a.46.46,0,0,0,.62-.19.47.47,0,0,0-.19-.62"/><path class="cls-4" d="M21.1,24.36l.68,0c.33,0,.71,0,1.11,0a3.85,3.85,0,0,1,1.59.31,1.62,1.62,0,0,0,.71.21.9.9,0,0,0,.72-.32c.49-.59.28-1.81-.06-3.47-.06-.29-.12-.56-.16-.78a1.06,1.06,0,0,0-1.05-1c-1.47,0-3.89,2.34-4.36,3.64a1,1,0,0,0,.22,1.25,1,1,0,0,0,.6.17m.52-1.92c.88-1.14,2.36-2.24,3-2.22.09,0,.14,0,.18.2s.1.51.16.81c.15.72.51,2.41.28,2.68,0,0-.08,0-.34-.11a4.72,4.72,0,0,0-2-.4c-.43,0-.84,0-1.18,0l-.64,0a2.28,2.28,0,0,1,.53-1"/><path class="cls-4" d="M67,89c-9.82-4.59-13.51-14.2-15.43-21-.46-1.6-1.1-2.43-2-2.53-2-.23-4.21,3.51-7.34,9.23l-.43.79C38.6,81.3,30.77,86.06,26.56,88.61l-1,.61a.45.45,0,0,0-.15.63.49.49,0,0,0,.38.22A.47.47,0,0,0,26,90l1-.61c4.29-2.6,12.26-7.43,15.6-13.53l.43-.79c2-3.72,4.81-8.8,6.37-8.76h.06c.45.05.88.71,1.2,1.86,2,7,5.77,16.88,15.94,21.62a.44.44,0,0,0,.6-.22A.46.46,0,0,0,67,89"/><path class="cls-4" d="M62.38,91.13c-.07,0-7.46-2.13-9.66-9.42-1.52-5-2.78-7.22-4.2-7.36-1.22-.11-2.13,1.3-2.79,2.54-3,5.56-8.83,9.81-14.19,13.24a.48.48,0,0,0-.14.64.45.45,0,0,0,.63.13c5.46-3.49,11.46-7.83,14.5-13.58.94-1.76,1.56-2.09,1.9-2.06.65.07,1.76,1.28,3.41,6.72,2.35,7.76,10,9.94,10.3,10l.11,0a.46.46,0,0,0,.13-.9"/><path class="cls-4" d="M54.35,91.31a14.43,14.43,0,0,1-4.58-6.43c-.16-.36-.3-.71-.45-1A1.75,1.75,0,0,0,48,82.72c-1-.1-2.17.75-3.64,2.63A22.64,22.64,0,0,1,39,89.63c-.52.33-1,.65-1.47,1a.46.46,0,0,0,.51.76c.45-.31.94-.62,1.45-.95A23.28,23.28,0,0,0,45,85.92c1.68-2.16,2.53-2.31,2.82-2.28.09,0,.36,0,.63.61.14.3.28.63.43,1A15.3,15.3,0,0,0,53.79,92a.46.46,0,0,0,.27.09.42.42,0,0,0,.37-.17.46.46,0,0,0-.08-.65"/><path class="cls-4" d="M47.61,88.36a.47.47,0,0,0-.63.18A10.34,10.34,0,0,1,43.72,92a.47.47,0,0,0-.15.63.44.44,0,0,0,.38.22.37.37,0,0,0,.25-.06A11.35,11.35,0,0,0,47.79,89a.46.46,0,0,0-.18-.62"/><path class="cls-4" d="M84.64,78.17c-3.22-1-13-3.82-24.12-27.06-2.73-5.74-1.82-8.28-1-9.29a2.76,2.76,0,0,1,2.63-1c.79.17,1.74,1.4,2.93,3a33.87,33.87,0,0,0,8,8c4.7,3.21,10.12,4.53,14.47,5.58a42.23,42.23,0,0,1,5.22,1.48.46.46,0,1,0,.34-.86,44,44,0,0,0-5.34-1.51c-4.28-1-9.61-2.33-14.18-5.45a33.2,33.2,0,0,1-7.83-7.85c-1.36-1.78-2.35-3.06-3.48-3.29a3.6,3.6,0,0,0-3.53,1.36c-1.12,1.43-1.88,4.37.92,10.24,4.84,10.14,12.66,24,24.7,27.55l.11,0a.47.47,0,0,0,.46-.33.46.46,0,0,0-.32-.57"/><path class="cls-4" d="M47.38,44.87l-.11,0v0Z"/><path class="cls-4" d="M58.17,37.45a2.78,2.78,0,0,0,1.29-2c.43-2.86-4.69-9.16-8.83-10.87a16.08,16.08,0,0,0-5.43-1.25c-1.78-.05-3,.44-3.64,1.38s-.49,2.59.5,4.58c1.32,2.64,1.17,5.63,1,8.25s-.13,4.74,1.1,6.07c.69.75,1.91.93,3.32,1.26V44.8c4.52.11,6-2,8.12-4.66l.38-.48a14.56,14.56,0,0,1,2.16-2.21m-2.93,1.66-.36.35c-2.09,2.54-3.6,4.31-7.44,4.22h0c-1.25-.31-2.13-.27-2.66-.85-1-1-.86-3-.74-5.36.14-2.74.3-5.8-1.13-8.65-.83-1.66-1-2.91-.54-3.66s1.83-1,2.84-.94a15.44,15.44,0,0,1,5.1,1.19,16.31,16.31,0,0,1,5.8,4.76c1.66,2.06,2.63,4.08,2.47,5.14-.11.74-.32.92-1,1.45a15.6,15.6,0,0,0-2.35,2.35"/><path class="cls-4" d="M50.55,27.84l-.06,0a14.11,14.11,0,0,0-4.11-1.27,1.42,1.42,0,0,0-1.32.57c-.37.58-.22,1.49.46,2.86.83,1.65.7,3.79.59,5.65s-.22,3.67.71,4.68a2.83,2.83,0,0,0,2.12.87h0c3.1.07,6.3-5.93,6.47-7.09.3-2-2.16-5.13-4.86-6.25m3.93,6.07c-.14.93-3.12,6.31-5.56,6.26a1.88,1.88,0,0,1-1.42-.52c-.67-.73-.58-2.32-.48-4,.12-2,.26-4.23-.68-6.1-.71-1.43-.57-1.85-.51-1.95s.37-.14.53-.14a14.18,14.18,0,0,1,3.77,1.2l.06,0c2.64,1.1,4.48,3.94,4.29,5.22"/><path class="cls-4" d="M50,31a.57.57,0,0,0-.25-.06c-.28,0-.66.14-.86.9a6.76,6.76,0,0,0-.17,1.42c0,.78,0,3.33,1.1,3.36,1.34,0,2.48-2.27,2.54-2.68C52.45,33.11,51,31.46,50,31m-.06,4.69A7.49,7.49,0,0,1,49.77,32a4.11,4.11,0,0,1,1.64,1.88c-.08.37-.94,1.75-1.51,1.89"/><path class="cls-4" d="M39.77,48.35a.56.56,0,0,0,.54.26s.09.06.14,0c.87-.13,3.41-1.37,3.76-2.2a.62.62,0,0,0-.05-.63,3.19,3.19,0,0,0-2.25-1.31,1.84,1.84,0,0,0-.8.15l-.14.07-.07.11c-1,1.85-1.41,3-1.13,3.5m1.84-2.88.27,0a2.19,2.19,0,0,1,1.41.79,8.82,8.82,0,0,1-2.67,1.5,12.71,12.71,0,0,1,1-2.26"/><path class="cls-4" d="M54.34,44.52a2.77,2.77,0,0,0-1.1.55,1.32,1.32,0,0,0-.06,2.06A6.71,6.71,0,0,0,55,48.46a1,1,0,0,0,1.23-.18c.81-1-.9-4.34-1.91-3.76m0,2.28a2.07,2.07,0,0,1-.62-.63c-.13-.23.33-.5.48-.63a3,3,0,0,1,.26-.19l0,0a.36.36,0,0,1,.12.09,2.44,2.44,0,0,1,.43.68,3.33,3.33,0,0,1,.41,1.41,4.77,4.77,0,0,1-1.13-.76"/><path class="cls-4" d="M55.53,47.72l0,0s0,0,0,0"/><path class="cls-4" d="M93.93,62.68a67,67,0,0,1-12.14-3.63c-6-2.34-10.53-4.84-12.62-7-4.47-4.69-5.46-3.93-5.78-3.68s-1.41,1.08,2.83,8C71,64.2,78.06,73.58,90.57,76.76h.11a.44.44,0,0,0,.45-.34.45.45,0,0,0-.33-.56c-6.4-1.63-14.9-5.37-23.79-20-3.6-5.89-3.07-6.83-3.08-6.84.23-.07,1.56.42,4.58,3.58,5,5.28,20.93,10.37,25.29,10.94a.46.46,0,0,0,.52-.39.47.47,0,0,0-.39-.52"/><path class="cls-4" d="M92.25,66.72c-8.67-1.55-13.51-4.18-15.62-5.61-.4-.27-.75-.48-1.07-.29a.51.51,0,0,0-.24.5c.12,1,7.21,7.57,15.35,10.33a.31.31,0,0,0,.13,0,.48.48,0,0,0,.45-.31.46.46,0,0,0-.29-.58,40.25,40.25,0,0,1-13-7.82,46.1,46.1,0,0,0,14.17,4.66.46.46,0,0,0,.16-.91"/></g></g></g></mask><clipPath id="clip-path-3" transform="translate(0)"><rect class="cls-3" width="92.36" height="92.36"/></clipPath><clipPath id="clip-path-4" transform="translate(0)"><polygon class="cls-3" points="96.56 61.6 96.56 62.98 99.61 62.98 99.61 71.29 101.15 71.29 101.15 62.98 104.2 62.98 104.2 61.6 96.56 61.6"/></clipPath><linearGradient id="linear-gradient-2" x1="-103.04" y1="159.29" x2="-102.04" y2="159.29" gradientTransform="matrix(0, 298.69, 298.69, 0, -47479.61, 30826.17)" gradientUnits="userSpaceOnUse"><stop offset="0" stop-color="#f58333"/><stop offset="0.63" stop-color="#f58333"/><stop offset="0.7" stop-color="#f58733"/><stop offset="0.77" stop-color="#f69331"/><stop offset="0.85" stop-color="#f8a62f"/><stop offset="0.88" stop-color="#f9b22e"/><stop offset="1" stop-color="#f9b22e"/></linearGradient><clipPath id="clip-path-5" transform="translate(0)"><polygon class="cls-3" points="113.14 61.6 113.14 71.29 118.85 71.29 118.85 69.91 114.68 69.91 114.68 67.03 118.45 67.03 118.45 65.66 114.68 65.66 114.68 62.98 118.78 62.98 118.78 61.6 113.14 61.6"/></clipPath><linearGradient id="linear-gradient-3" x1="-103.04" y1="159.29" x2="-102.04" y2="159.29" gradientTransform="matrix(0, 298.69, 298.69, 0, -47464.08, 30810.58)" xlink:href="#linear-gradient-2"/><clipPath id="clip-path-6" transform="translate(0)"><path class="cls-3" d="M128,66.45a4.66,4.66,0,0,0,4.85,5,5.25,5.25,0,0,0,3.31-1.07l-.6-1.26a4,4,0,0,1-2.63,1c-2,0-3.29-1.44-3.29-3.61s1.26-3.62,3.29-3.62a4.08,4.08,0,0,1,2.63,1l.61-1.23a5.17,5.17,0,0,0-3.32-1.09,4.65,4.65,0,0,0-4.85,5"/></clipPath><linearGradient id="linear-gradient-4" x1="-103.04" y1="159.29" x2="-102.04" y2="159.29" gradientTransform="matrix(0, 298.69, 298.69, 0, -47447.97, 30794.52)" xlink:href="#linear-gradient-2"/><clipPath id="clip-path-7" transform="translate(0)"><polygon class="cls-3" points="151.6 61.6 151.6 65.66 146.98 65.66 146.98 61.6 145.44 61.6 145.44 71.29 146.98 71.29 146.98 67.03 151.6 67.03 151.6 71.29 153.15 71.29 153.15 61.6 151.6 61.6"/></clipPath><linearGradient id="linear-gradient-5" x1="-103.04" y1="159.29" x2="-102.04" y2="159.29" gradientTransform="matrix(0, 298.69, 298.69, 0, -47430.79, 30777.33)" xlink:href="#linear-gradient-2"/><clipPath id="clip-path-8" transform="translate(0)"><polygon class="cls-3" points="162.81 61.4 162.81 71.29 164.35 71.29 164.35 65.04 170.54 71.49 170.67 71.49 170.67 61.6 169.13 61.6 169.13 67.95 162.94 61.4 162.81 61.4"/></clipPath><linearGradient id="linear-gradient-6" x1="-103.04" y1="159.29" x2="-102.04" y2="159.29" gradientTransform="matrix(0, 298.69, 298.69, 0, -47413.33, 30759.92)" xlink:href="#linear-gradient-2"/><clipPath id="clip-path-9" transform="translate(0)"><path class="cls-3" d="M181.68,66.45c0-2.17,1.28-3.62,3.22-3.62s3.23,1.45,3.23,3.62-1.29,3.61-3.23,3.61-3.22-1.45-3.22-3.61m-1.64,0a4.86,4.86,0,1,0,9.72,0,4.86,4.86,0,1,0-9.72,0"/></clipPath><linearGradient id="linear-gradient-7" x1="-103.04" y1="159.29" x2="-102.04" y2="159.29" gradientTransform="matrix(0, 298.69, 298.69, 0, -47395.19, 30741.75)" xlink:href="#linear-gradient-2"/><clipPath id="clip-path-10" transform="translate(0)"><polygon class="cls-3" points="199.14 61.6 199.14 71.29 204.93 71.29 204.93 69.91 200.68 69.91 200.68 61.6 199.14 61.6"/></clipPath><linearGradient id="linear-gradient-8" x1="-103.04" y1="159.29" x2="-102.04" y2="159.29" gradientTransform="matrix(0, 298.69, 298.69, 0, -47378.16, 30724.69)" xlink:href="#linear-gradient-2"/><clipPath id="clip-path-11" transform="translate(0)"><path class="cls-3" d="M214.66,66.45c0-2.17,1.29-3.62,3.23-3.62s3.22,1.45,3.22,3.62-1.29,3.61-3.22,3.61-3.23-1.45-3.23-3.61m-1.64,0a4.86,4.86,0,1,0,9.72,0,4.86,4.86,0,1,0-9.72,0"/></clipPath><linearGradient id="linear-gradient-9" x1="-103.04" y1="159.29" x2="-102.04" y2="159.29" gradientTransform="matrix(0, 298.69, 298.69, 0, -47362.2, 30708.85)" xlink:href="#linear-gradient-2"/><clipPath id="clip-path-12" transform="translate(0)"><path class="cls-3" d="M231.83,66.45a4.65,4.65,0,0,0,4.84,5,6.49,6.49,0,0,0,3.53-1V66.21h-3.58v1.37h2V69.7a5.47,5.47,0,0,1-1.92.36c-2,0-3.29-1.44-3.29-3.61s1.26-3.62,3.29-3.62a4.08,4.08,0,0,1,2.63,1l.61-1.23a5.17,5.17,0,0,0-3.32-1.09,4.65,4.65,0,0,0-4.84,5"/></clipPath><linearGradient id="linear-gradient-10" x1="-103.04" y1="159.29" x2="-102.04" y2="159.29" gradientTransform="matrix(0, 298.69, 298.69, 0, -47344.04, 30690.73)" xlink:href="#linear-gradient-2"/><clipPath id="clip-path-13" transform="translate(0)"><polygon class="cls-3" points="254.98 61.6 252.72 66.06 250.55 61.6 248.74 61.6 251.95 67.47 251.95 71.29 253.49 71.29 253.49 67.48 256.72 61.6 254.98 61.6"/></clipPath><linearGradient id="linear-gradient-11" x1="-103.04" y1="159.29" x2="-102.04" y2="159.29" gradientTransform="matrix(0, 298.69, 298.69, 0, -47327.24, 30674.08)" xlink:href="#linear-gradient-2"/><clipPath id="clip-path-14" transform="translate(0)"><polygon class="cls-3" points="275.6 61.6 275.6 71.29 281.39 71.29 281.39 69.91 277.14 69.91 277.14 61.6 275.6 61.6"/></clipPath><linearGradient id="linear-gradient-12" x1="-103.04" y1="159.29" x2="-102.04" y2="159.29" gradientTransform="matrix(0, 298.69, 298.69, 0, -47301.69, 30648.36)" xlink:href="#linear-gradient-2"/><clipPath id="clip-path-15" transform="translate(0)"><polygon class="cls-3" points="288.16 61.6 288.16 62.98 291.22 62.98 291.22 71.29 292.76 71.29 292.76 62.98 295.81 62.98 295.81 61.6 288.16 61.6"/></clipPath><linearGradient id="linear-gradient-13" x1="-103.04" y1="159.29" x2="-102.04" y2="159.29" gradientTransform="matrix(0, 298.69, 298.69, 0, -47288.02, 30634.85)" xlink:href="#linear-gradient-2"/><clipPath id="clip-path-16" transform="translate(0)"><path class="cls-3" d="M306.28,62.87h2.1c1.81,0,3.15,1.41,3.15,3.58S310.19,70,308.38,70h-2.1Zm-1.54-1.27v9.69h3.64a4.85,4.85,0,0,0,0-9.69Z"/></clipPath><linearGradient id="linear-gradient-14" x1="-103.04" y1="159.29" x2="-102.04" y2="159.29" gradientTransform="matrix(0, 298.69, 298.69, 0, -47271.26, 30617.91)" xlink:href="#linear-gradient-2"/></defs><title>Asset 1</title><g id="Layer_2" data-name="Layer 2"><g id="Layer_1-2" data-name="Layer 1"><g class="cls-5"><rect class="cls-6" x="0.19" width="92.36" height="92.36"/></g><g class="cls-7"><g class="cls-8"><g class="cls-9"><path class="cls-4" d="M92.36,46.18A46.18,46.18,0,1,1,46.18,0,46.17,46.17,0,0,1,92.36,46.18" transform="translate(0)"/></g></g></g><path class="cls-4" d="M79,59.4a4.69,4.69,0,1,1-4.69-4.69A4.69,4.69,0,0,1,79,59.4" transform="translate(0)"/><path class="cls-4" d="M13.57,28.27h8.94V41.58h.1a8.47,8.47,0,0,1,7-3c5.81,0,10.08,4.77,10,12.28,0,8.84-5.56,13.26-11.23,13.26a7.74,7.74,0,0,1-6.95-3.67h-.1l-.35,3.13H13.37c.1-1.59.2-4.72.2-7.75Zm8.94,24.64a9,9,0,0,0,.1,1.25,3.73,3.73,0,0,0,3.53,2.93c2.63,0,4.32-2,4.32-5.87,0-3.33-1.34-5.81-4.32-5.81a3.62,3.62,0,0,0-3.53,3,9.71,9.71,0,0,0-.1,1.19Z" transform="translate(0)"/><path class="cls-4" d="M51.28,32.14v7h5.07v6.56H51.28v7c0,2.93.69,4.12,2.83,4.12a6.79,6.79,0,0,0,2.14-.2V63.4a18.52,18.52,0,0,1-5.32.69,8.68,8.68,0,0,1-6.11-2.23c-1.49-1.49-2.29-3.93-2.29-7.65V45.66h-3V39.1h3V34.48Z" transform="translate(0)"/><rect class="cls-4" x="58.13" y="28.27" width="8.94" height="35.28"/><path class="cls-10" d="M96.37,22.76h9V36.19h.1a8.5,8.5,0,0,1,7-3c5.79,0,10.08,4.79,10,12.33,0,8.88-5.59,13.33-11.28,13.33a7.76,7.76,0,0,1-7-3.7h-.1l-.35,3.15H96.17c.1-1.6.2-4.75.2-7.74Zm9,24.81a8.89,8.89,0,0,0,.1,1.24,3.7,3.7,0,0,0,3.55,2.95c2.64,0,4.34-2,4.34-5.89,0-3.34-1.35-5.84-4.34-5.84a3.64,3.64,0,0,0-3.55,3,9.71,9.71,0,0,0-.1,1.2Z" transform="translate(0)"/><path class="cls-10" d="M129,31.15a4.23,4.23,0,0,1-4.54-4.25c0-2.49,1.79-4.29,4.59-4.29a4.28,4.28,0,1,1,0,8.54Zm-4.49,2.54h9V58.25h-9Z" transform="translate(0)"/><path class="cls-10" d="M148.62,58.8c-7.33,0-13-4.65-13-12.63s5.14-13,13.52-13c7.69,0,12.78,5.19,12.78,12.58,0,8.93-6.39,13.08-13.23,13.08Zm.25-6.34c2.45,0,3.74-2.55,3.74-6.49,0-3.39-1.09-6.49-3.74-6.49-3,0-4,3.25-4,6.49,0,3.69,1.2,6.49,3.94,6.49Z" transform="translate(0)"/><path class="cls-10" d="M163.94,42.08c0-3.3-.1-6.09-.2-8.39h7.54l.35,3.1h.2a8.57,8.57,0,0,1,7.28-3.65c3.15,0,5.59,1.45,6.64,4h.1a10.08,10.08,0,0,1,3.39-3,9.3,9.3,0,0,1,4.35-1c5.29,0,8.33,3.85,8.33,10.68V58.25h-8.73V45.17c0-3-.9-4.79-2.9-4.79a2.79,2.79,0,0,0-2.74,2.1,5.35,5.35,0,0,0-.25,1.79v14h-8.74V44.92c0-2.74-.84-4.54-2.89-4.54a3,3,0,0,0-2.75,2,6.14,6.14,0,0,0-.25,1.84v14h-8.73Z" transform="translate(0)"/><path class="cls-10" d="M212.4,49.11c.3,2,3.14,3,6.34,3a21.7,21.7,0,0,0,6.69-.95l1.14,6a25.32,25.32,0,0,1-9.18,1.55c-8.63,0-13.52-4.75-13.52-12.53,0-5.69,3.69-13.08,12.72-13.08,7.94,0,11.33,5.84,11.33,12.58a15.79,15.79,0,0,1-.35,3.39ZM219.64,43c0-1.4-.65-4-3.5-4-2.64,0-3.69,2.45-3.84,4Z" transform="translate(0)"/><path class="cls-10" d="M239.55,26.71v7h5.09v6.59h-5.09v7c0,2.89.65,4.09,2.84,4.09a6.83,6.83,0,0,0,2.15-.2v6.84a17,17,0,0,1-5.34.7,8.71,8.71,0,0,1-6.14-2.25c-1.5-1.5-2.3-3.89-2.3-7.64V40.28h-3V33.69h3V29.1Z" transform="translate(0)"/><path class="cls-10" d="M246.48,42c0-3.9,0-6.24-.19-8.29H254l.35,4.44h.2a7,7,0,0,1,6.54-5,6.61,6.61,0,0,1,1.79.15v8.44a9.63,9.63,0,0,0-2.29-.25c-2.65,0-4.44,1.1-4.94,3.09a12.71,12.71,0,0,0-.1,1.55V58.25h-9Z" transform="translate(0)"/><path class="cls-10" d="M268.59,31.15a4.23,4.23,0,0,1-4.54-4.25c0-2.49,1.8-4.29,4.59-4.29a4.28,4.28,0,1,1,0,8.54Zm-4.49,2.54h9V58.25h-9Z" transform="translate(0)"/><path class="cls-10" d="M295.24,57.7a17.22,17.22,0,0,1-6.73,1c-8.19,0-13.33-4.8-13.33-12.58,0-7,4.84-13,14.42-13a18.34,18.34,0,0,1,5.64.85L294,40.63a10.1,10.1,0,0,0-3.89-.6,5.44,5.44,0,0,0-5.69,5.84c0,4,2.75,5.89,5.94,5.89a10.46,10.46,0,0,0,3.94-.65Z" transform="translate(0)"/><path class="cls-10" d="M296.89,50.66a16.16,16.16,0,0,0,6.79,1.85c1.94,0,2.69-.4,2.69-1.35s-.55-1.25-3.19-2.1c-5.44-1.69-7.29-4.64-7.24-7.48,0-4.89,4.19-8.44,10.68-8.44a19.23,19.23,0,0,1,7.29,1.4l-1.45,6.09A14.2,14.2,0,0,0,307,39.28c-1.55,0-2.45.4-2.45,1.4,0,.8.8,1.3,3.7,2.25C313.11,44.47,315,47,315,50.51c0,4.69-3.64,8.24-11.22,8.24A19.3,19.3,0,0,1,295.34,57Z" transform="translate(0)"/><g class="cls-11"><rect class="cls-12" x="95.33" y="62.35" width="10.11" height="8.18" transform="translate(28.37 162.91) rotate(-86.76)"/></g><g class="cls-13"><rect class="cls-14" x="110.99" y="63.32" width="10" height="6.25" transform="translate(43.1 178.5) rotate(-86.76)"/></g><g class="cls-15"><rect class="cls-16" x="126.87" y="62.09" width="10.4" height="8.72" transform="translate(58.26 194.55) rotate(-86.76)"/></g><g class="cls-17"><rect class="cls-18" x="144.24" y="62.33" width="10.11" height="8.24" transform="translate(74.52 211.75) rotate(-86.76)"/></g><g class="cls-19"><rect class="cls-20" x="161.48" y="62.24" width="10.52" height="8.42" transform="translate(90.98 229.16) rotate(-86.76)"/></g><g class="cls-21"><rect class="cls-22" x="179.66" y="61.31" width="10.49" height="10.27" transform="translate(108.11 247.3) rotate(-86.76)"/></g><g class="cls-23"><rect class="cls-24" x="197.03" y="63.28" width="10.01" height="6.33" transform="translate(124.27 264.4) rotate(-86.76)"/></g><g class="cls-25"><rect class="cls-26" x="212.64" y="61.31" width="10.49" height="10.27" transform="translate(139.23 280.23) rotate(-86.76)"/></g><g class="cls-27"><rect class="cls-28" x="230.81" y="61.98" width="10.42" height="8.93" transform="translate(156.34 298.33) rotate(-86.76)"/></g><g class="cls-29"><rect class="cls-30" x="247.67" y="62.19" width="10.13" height="8.52" transform="translate(172.11 315.02) rotate(-86.76)"/></g><g class="cls-31"><rect class="cls-32" x="273.49" y="63.28" width="10.01" height="6.33" transform="translate(196.42 340.74) rotate(-86.76)"/></g><g class="cls-33"><rect class="cls-34" x="286.93" y="62.35" width="10.11" height="8.18" transform="translate(209.14 354.21) rotate(-86.76)"/></g><g class="cls-35"><rect class="cls-36" x="303.88" y="61.97" width="10.15" height="8.95" transform="translate(225.15 371.15) rotate(-86.76)"/></g></g></g></svg>